<svg xmlns="http://www.w3.org/2000/svg" xmlns:xlink="http://www.w3.org/1999/xlink" width="245" zoomAndPan="magnify" viewBox="0 0 183.75 49.499998" height="66" preserveAspectRatio="xMidYMid meet" version="1.0"><defs><g/><clipPath id="a65c2ea481"><path d="M 0.796875 0 L 182.707031 0 L 182.707031 49.003906 L 0.796875 49.003906 Z M 0.796875 0 " clip-rule="nonzero"/></clipPath><clipPath id="a1693b632e"><path d="M 1 10.226562 L 46.828125 10.226562 L 46.828125 42.894531 L 1 42.894531 Z M 1 10.226562 " clip-rule="nonzero"/></clipPath></defs><g clip-path="url(#a65c2ea481)"><path fill="#ffffff" d="M 0.796875 0 L 182.707031 0 L 182.707031 49.003906 L 0.796875 49.003906 Z M 0.796875 0 " fill-opacity="1" fill-rule="nonzero"/></g><g clip-path="url(#a1693b632e)"><path fill="#000000" d="M 46.367188 31.839844 C 46.359375 31.898438 46.347656 31.957031 46.332031 32.015625 C 45.941406 33.488281 44.328125 34.621094 40.9375 35.796875 C 38.542969 36.625 35.648438 37.339844 33.320312 37.914062 C 32.925781 38.011719 32.546875 38.105469 32.1875 38.195312 C 29.011719 38.988281 26.722656 39.796875 24.652344 40.554688 L 24.15625 40.738281 C 21.617188 41.679688 19.425781 42.492188 15.996094 42.867188 C 15.359375 42.9375 14.484375 42.992188 13.492188 42.992188 C 11.164062 42.992188 8.199219 42.699219 6.175781 41.644531 C 3.492188 40.246094 1.550781 37.867188 1.109375 35.429688 C 0.796875 33.714844 1.246094 32.0625 2.375 30.765625 C 2.574219 30.5 2.816406 30.292969 3.089844 30.144531 C 3.113281 30.105469 3.136719 30.066406 3.164062 30.027344 C 3.390625 29.644531 3.679688 29.292969 4.023438 28.980469 C 5.105469 27.988281 6.585938 27.457031 8.296875 26.847656 C 8.835938 26.652344 9.390625 26.457031 9.960938 26.234375 C 10.09375 26.042969 10.261719 25.875 10.457031 25.738281 C 10.589844 25.652344 10.726562 25.582031 10.867188 25.53125 C 10.832031 25.101562 10.9375 24.652344 11.207031 24.273438 C 11.695312 23.570312 12.550781 23.308594 13.3125 23.574219 C 13.597656 23.308594 13.890625 23.042969 14.1875 22.773438 C 14.234375 22.507812 14.335938 22.25 14.503906 22.015625 C 14.839844 21.53125 15.347656 21.257812 15.882812 21.21875 L 16.839844 20.339844 C 16.921875 20.070312 17.066406 19.816406 17.273438 19.597656 C 17.550781 19.296875 17.898438 19.109375 18.265625 19.03125 C 18.660156 18.671875 19.050781 18.316406 19.4375 17.960938 C 19.527344 17.6875 19.675781 17.433594 19.886719 17.21875 C 20.152344 16.945312 20.480469 16.765625 20.832031 16.6875 C 21.222656 16.332031 21.605469 15.984375 21.976562 15.648438 C 22.023438 15.433594 22.113281 15.222656 22.242188 15.027344 C 22.566406 14.53125 23.066406 14.238281 23.605469 14.175781 C 23.742188 14.050781 23.878906 13.929688 24.011719 13.8125 C 24.085938 13.605469 24.199219 13.410156 24.34375 13.238281 C 24.613281 12.914062 24.96875 12.699219 25.359375 12.609375 C 27.503906 10.71875 27.746094 10.621094 28.019531 10.503906 C 28.683594 10.226562 29.492188 10.265625 31.660156 11.265625 C 32.84375 11.8125 34.171875 12.542969 35.046875 13.125 C 35.839844 13.652344 36.617188 14.25 36.617188 15.207031 C 36.617188 15.46875 36.582031 15.78125 36.339844 16.265625 C 37.109375 16.140625 37.5625 15.867188 37.761719 15.714844 C 38.171875 14.546875 39.269531 13.3125 40.648438 13.046875 C 41.246094 12.929688 42.746094 12.851562 43.835938 14.632812 C 43.878906 14.699219 43.914062 14.769531 43.945312 14.84375 C 46.324219 20.542969 45.464844 24.976562 44.90625 26.789062 C 45.59375 27.835938 46.652344 29.832031 46.367188 31.839844 Z M 46.367188 31.839844 C 46.359375 31.898438 46.347656 31.957031 46.332031 32.015625 C 45.941406 33.488281 44.328125 34.621094 40.9375 35.796875 C 38.542969 36.625 35.648438 37.339844 33.320312 37.914062 C 32.925781 38.011719 32.546875 38.105469 32.1875 38.195312 C 29.011719 38.988281 26.722656 39.796875 24.652344 40.554688 L 24.15625 40.738281 C 21.617188 41.679688 19.425781 42.492188 15.996094 42.867188 C 15.359375 42.9375 14.484375 42.992188 13.492188 42.992188 C 11.164062 42.992188 8.199219 42.699219 6.175781 41.644531 C 3.492188 40.246094 1.550781 37.867188 1.109375 35.429688 C 0.796875 33.714844 1.246094 32.0625 2.375 30.765625 C 2.574219 30.5 2.816406 30.292969 3.089844 30.144531 C 3.113281 30.105469 3.136719 30.066406 3.164062 30.027344 C 3.390625 29.644531 3.679688 29.292969 4.023438 28.980469 C 5.105469 27.988281 6.585938 27.457031 8.296875 26.847656 C 8.835938 26.652344 9.390625 26.457031 9.960938 26.234375 C 10.09375 26.042969 10.261719 25.875 10.457031 25.738281 C 10.589844 25.652344 10.726562 25.582031 10.867188 25.53125 C 10.832031 25.101562 10.9375 24.652344 11.207031 24.273438 C 11.695312 23.570312 12.550781 23.308594 13.3125 23.574219 C 13.597656 23.308594 13.890625 23.042969 14.1875 22.773438 C 14.234375 22.507812 14.335938 22.25 14.503906 22.015625 C 14.839844 21.53125 15.347656 21.257812 15.882812 21.21875 L 16.839844 20.339844 C 16.921875 20.070312 17.066406 19.816406 17.273438 19.597656 C 17.550781 19.296875 17.898438 19.109375 18.265625 19.03125 C 18.660156 18.671875 19.050781 18.316406 19.4375 17.960938 C 19.527344 17.6875 19.675781 17.433594 19.886719 17.21875 C 20.152344 16.945312 20.480469 16.765625 20.832031 16.6875 C 21.222656 16.332031 21.605469 15.984375 21.976562 15.648438 C 22.023438 15.433594 22.113281 15.222656 22.242188 15.027344 C 22.566406 14.53125 23.066406 14.238281 23.605469 14.175781 C 23.742188 14.050781 23.878906 13.929688 24.011719 13.8125 C 24.085938 13.605469 24.199219 13.410156 24.34375 13.238281 C 24.613281 12.914062 24.96875 12.699219 25.359375 12.609375 C 27.503906 10.71875 27.746094 10.621094 28.019531 10.503906 C 28.683594 10.226562 29.492188 10.265625 31.660156 11.265625 C 32.84375 11.8125 34.171875 12.542969 35.046875 13.125 C 35.839844 13.652344 36.617188 14.25 36.617188 15.207031 C 36.617188 15.46875 36.582031 15.78125 36.339844 16.265625 C 37.109375 16.140625 37.5625 15.867188 37.761719 15.714844 C 38.171875 14.546875 39.269531 13.3125 40.648438 13.046875 C 41.246094 12.929688 42.746094 12.851562 43.835938 14.632812 C 43.878906 14.699219 43.914062 14.769531 43.945312 14.84375 C 46.324219 20.542969 45.464844 24.976562 44.90625 26.789062 C 45.59375 27.835938 46.652344 29.832031 46.367188 31.839844 Z M 46.367188 31.839844 " fill-opacity="1" fill-rule="nonzero"/></g><path fill="#000000" d="M 39.144531 16.496094 C 39.34375 15.304688 41.265625 13.382812 42.523438 15.4375 C 45.371094 22.261719 43.1875 27.027344 43.1875 27.027344 C 43.1875 27.027344 43.472656 32.683594 14.105469 39.085938 C 3.640625 39.746094 4.03125 32.925781 4.097656 31.863281 C 4.59375 29.148438 7.8125 28.882812 11.589844 27.226562 C 17.285156 22.0625 27.816406 12.257812 28.613281 11.925781 C 29.40625 11.59375 35.074219 14.613281 35.074219 15.207031 C 35.074219 15.804688 33.449219 17.621094 33.449219 17.621094 C 36.894531 18.417969 38.746094 17.09375 39.144531 16.496094 Z M 39.144531 16.496094 C 39.34375 15.304688 41.265625 13.382812 42.523438 15.4375 C 45.371094 22.261719 43.1875 27.027344 43.1875 27.027344 C 43.1875 27.027344 43.472656 32.683594 14.105469 39.085938 C 3.640625 39.746094 4.03125 32.925781 4.097656 31.863281 C 4.59375 29.148438 7.8125 28.882812 11.589844 27.226562 C 17.285156 22.0625 27.816406 12.257812 28.613281 11.925781 C 29.40625 11.59375 35.074219 14.613281 35.074219 15.207031 C 35.074219 15.804688 33.449219 17.621094 33.449219 17.621094 C 36.894531 18.417969 38.746094 17.09375 39.144531 16.496094 Z M 39.144531 16.496094 " fill-opacity="1" fill-rule="nonzero"/><path fill="#ffffff" d="M 11.3125 27.609375 C 10.953125 27.363281 11.292969 26.777344 11.652344 27.027344 C 11.929688 27.21875 12.210938 27.398438 12.503906 27.5625 C 13.078125 27.886719 13.710938 28.152344 14.375 28.21875 C 14.886719 28.269531 15.359375 28.183594 15.839844 28.023438 C 16.742188 27.714844 17.65625 27.316406 18.464844 26.808594 C 19.503906 26.148438 20.507812 25.433594 21.535156 24.75 C 23.019531 23.761719 24.507812 22.78125 26 21.808594 C 27.464844 20.855469 28.933594 19.910156 30.417969 18.988281 C 31.347656 18.410156 32.28125 17.792969 33.277344 17.332031 C 33.445312 17.253906 33.640625 17.28125 33.742188 17.453125 C 33.828125 17.597656 33.785156 17.839844 33.621094 17.914062 C 33.542969 17.949219 33.46875 17.988281 33.390625 18.027344 C 32.289062 18.589844 31.238281 19.269531 30.191406 19.925781 C 28.652344 20.890625 27.128906 21.878906 25.609375 22.871094 C 24.144531 23.832031 22.679688 24.796875 21.21875 25.773438 C 20.152344 26.484375 19.109375 27.285156 17.957031 27.855469 C 17.472656 28.097656 16.976562 28.316406 16.472656 28.511719 C 16.035156 28.679688 15.597656 28.832031 15.132812 28.886719 C 13.746094 29.054688 12.414062 28.378906 11.3125 27.609375 Z M 42.394531 17.453125 C 38.828125 19.714844 35.605469 23.007812 34.894531 27.335938 C 34.695312 28.5625 34.703125 29.804688 34.96875 31.019531 C 35.0625 31.445312 35.714844 31.265625 35.625 30.839844 C 35.183594 28.828125 35.515625 26.695312 36.355469 24.828125 C 37.1875 22.980469 38.488281 21.394531 40 20.0625 C 40.855469 19.3125 41.777344 18.644531 42.738281 18.035156 C 43.105469 17.804688 42.765625 17.21875 42.394531 17.453125 Z M 42.394531 17.453125 " fill-opacity="1" fill-rule="nonzero"/><path fill="#ffffff" d="M 17.089844 28.679688 C 17.390625 28.996094 16.910156 29.476562 16.609375 29.160156 C 15.378906 27.855469 14.019531 26.683594 12.550781 25.65625 C 12.195312 25.410156 12.53125 24.824219 12.890625 25.074219 C 14.410156 26.128906 15.820312 27.335938 17.089844 28.679688 Z M 15.851562 23.390625 C 17.582031 24.46875 19.210938 25.761719 20.492188 27.355469 C 20.605469 27.5 20.851562 27.476562 20.96875 27.355469 C 21.109375 27.214844 21.085938 27.019531 20.96875 26.878906 C 19.65625 25.242188 17.96875 23.910156 16.195312 22.808594 C 15.824219 22.574219 15.480469 23.160156 15.851562 23.390625 Z M 18.460938 21.167969 C 19.441406 21.699219 20.351562 22.359375 21.195312 23.085938 C 22.039062 23.8125 22.84375 24.609375 23.515625 25.496094 C 23.625 25.640625 23.808594 25.714844 23.980469 25.617188 C 24.121094 25.53125 24.210938 25.300781 24.101562 25.152344 C 23.390625 24.21875 22.566406 23.375 21.675781 22.609375 C 20.789062 21.84375 19.832031 21.144531 18.804688 20.582031 C 18.421875 20.375 18.078125 20.957031 18.460938 21.167969 Z M 21.050781 18.816406 C 22.085938 19.378906 23.089844 20.011719 23.988281 20.78125 C 24.886719 21.546875 25.675781 22.425781 26.347656 23.394531 C 26.59375 23.75 27.183594 23.414062 26.933594 23.054688 C 26.230469 22.039062 25.410156 21.105469 24.46875 20.300781 C 23.523438 19.496094 22.480469 18.820312 21.390625 18.230469 C 21.007812 18.023438 20.664062 18.609375 21.050781 18.816406 Z M 23.636719 16.332031 C 25.929688 17.488281 28.195312 19.066406 29.703125 21.179688 C 29.808594 21.328125 30 21.398438 30.167969 21.300781 C 30.3125 21.214844 30.394531 20.988281 30.289062 20.835938 C 28.710938 18.625 26.382812 16.960938 23.980469 15.746094 C 23.589844 15.550781 23.246094 16.132812 23.636719 16.332031 Z M 25.675781 14.765625 C 26.351562 14.890625 26.941406 15.222656 27.511719 15.59375 C 28.101562 15.976562 28.679688 16.386719 29.238281 16.820312 C 30.363281 17.691406 31.417969 18.65625 32.390625 19.695312 C 32.6875 20.015625 33.164062 19.535156 32.867188 19.21875 C 31.855469 18.136719 30.761719 17.144531 29.589844 16.242188 C 29.007812 15.792969 28.410156 15.363281 27.792969 14.96875 C 27.195312 14.585938 26.558594 14.242188 25.855469 14.109375 C 25.429688 14.03125 25.246094 14.683594 25.675781 14.765625 Z M 5.0625 30.117188 C 5.0625 30.117188 6.953125 30.273438 8.210938 32.925781 C 9.46875 35.574219 17.882812 35.109375 20.730469 33.785156 C 23.578125 32.460938 25.367188 34.847656 25.367188 34.847656 C 25.367188 34.847656 19.933594 39.839844 13.046875 39.128906 C 6.15625 38.421875 4.566406 35.839844 4.566406 35.839844 L 3.640625 33.191406 C 3.640625 33.191406 3.707031 31.480469 5.0625 30.117188 Z M 5.0625 30.117188 " fill-opacity="1" fill-rule="nonzero"/><path fill="#ffffff" d="M 43.1875 27.027344 C 43.1875 27.027344 45.152344 29.457031 44.84375 31.621094 C 44.269531 33.785156 36.378906 35.558594 31.816406 36.699219 C 23.511719 38.777344 21.257812 40.894531 15.5625 41.253906 C 13.089844 41.40625 9.195312 41.480469 6.886719 40.277344 C 3.257812 38.386719 1.1875 34.402344 3.574219 31.730469 C 4.648438 30.191406 7.480469 34.800781 7.613281 36.789062 C 8.894531 37.539062 16.195312 38.761719 21.429688 36.171875 C 31.242188 31.3125 42.015625 29.546875 43.1875 27.027344 Z M 43.1875 27.027344 C 43.1875 27.027344 45.152344 29.457031 44.84375 31.621094 C 44.269531 33.785156 36.378906 35.558594 31.816406 36.699219 C 23.511719 38.777344 21.695312 40.695312 15.828125 41.335938 C 13.363281 41.609375 9.195312 41.480469 6.886719 40.277344 C 3.257812 38.386719 1.1875 34.402344 3.574219 31.730469 C 4.648438 30.191406 7.480469 34.800781 7.613281 36.789062 C 8.894531 37.539062 16.195312 38.761719 21.429688 36.171875 C 31.242188 31.3125 42.015625 29.546875 43.1875 27.027344 Z M 43.1875 27.027344 " fill-opacity="1" fill-rule="nonzero"/><g fill="#000000" fill-opacity="1"><g transform="translate(67.320278, 31.461667)"><g><path d="M 1.765625 -0.40625 L 2.609375 -17.78125 L 3.828125 -19.015625 L 17.25 -19.421875 L 18.546875 -18.296875 L 19.6875 -9.125 L 18.28125 -7.71875 L 16.125 -7.921875 L 19.84375 -1.359375 L 17.65625 -0.109375 L 13.0625 -8.25 L 7.3125 -8.859375 L 7.578125 -11.40625 L 16.953125 -10.421875 L 16.15625 -16.84375 L 5.109375 -16.453125 L 4.3125 -0.265625 Z M 1.765625 -0.40625 "/></g></g></g><g fill="#000000" fill-opacity="1"><g transform="translate(87.494148, 31.461667)"><g><path d="M 1.765625 -0.515625 L 2.6875 -19.171875 L 5.265625 -19.03125 L 4.3125 -0.375 Z M 1.765625 -0.515625 "/></g></g></g><g fill="#000000" fill-opacity="1"><g transform="translate(93.494661, 31.461667)"><g><path d="M 0.140625 -14.875 L 2.421875 -16.078125 L 8.765625 -3.640625 L 16.234375 -19.390625 L 18.546875 -18.28125 L 10 -0.21875 L 7.6875 -0.1875 Z M 0.140625 -14.875 "/></g></g></g><g fill="#000000" fill-opacity="1"><g transform="translate(110.328834, 31.461667)"><g><path d="M 1.359375 -1.46875 L 2.65625 -18.21875 L 3.96875 -19.421875 L 17.65625 -18.984375 L 17.546875 -16.421875 L 5.109375 -16.8125 L 4.703125 -11.484375 L 16.453125 -11.671875 L 16.515625 -9.09375 L 4.484375 -8.90625 L 4.015625 -2.75 L 17.921875 -3.890625 L 18.140625 -1.328125 L 2.75 -0.078125 Z M 1.359375 -1.46875 "/></g></g></g><g fill="#000000" fill-opacity="1"><g transform="translate(129.199408, 31.461667)"><g><path d="M 1.765625 -0.40625 L 2.609375 -17.78125 L 3.828125 -19.015625 L 17.25 -19.421875 L 18.546875 -18.296875 L 19.6875 -9.125 L 18.28125 -7.71875 L 16.125 -7.921875 L 19.84375 -1.359375 L 17.65625 -0.109375 L 13.0625 -8.25 L 7.3125 -8.859375 L 7.578125 -11.40625 L 16.953125 -10.421875 L 16.15625 -16.84375 L 5.109375 -16.453125 L 4.3125 -0.265625 Z M 1.765625 -0.40625 "/></g></g></g><g fill="#000000" fill-opacity="1"><g transform="translate(100.91761, 42.94992)"><g><path d="M 1.890625 -3.8125 C 1.796875 -3.820312 1.75 -3.867188 1.75 -3.953125 L 1.75 -4.859375 C 1.757812 -4.941406 1.804688 -4.988281 1.890625 -5 L 4.359375 -5 L 4.359375 -6.265625 L 2.09375 -6.3125 C 1.21875 -6.332031 0.648438 -6.03125 0.390625 -5.40625 C 0.304688 -5.1875 0.265625 -4.945312 0.265625 -4.6875 L 0.265625 -4.140625 C 0.265625 -3.359375 0.597656 -2.847656 1.265625 -2.609375 C 1.503906 -2.523438 1.78125 -2.484375 2.09375 -2.484375 L 2.96875 -2.484375 C 3.050781 -2.472656 3.097656 -2.425781 3.109375 -2.34375 L 3.109375 -1.40625 C 3.097656 -1.320312 3.050781 -1.28125 2.96875 -1.28125 L 0.421875 -1.28125 L 0.421875 0 L 2.765625 0.046875 C 3.640625 0.0664062 4.207031 -0.234375 4.46875 -0.859375 C 4.550781 -1.078125 4.59375 -1.316406 4.59375 -1.578125 L 4.59375 -2.15625 C 4.59375 -2.9375 4.257812 -3.445312 3.59375 -3.6875 C 3.351562 -3.769531 3.078125 -3.8125 2.765625 -3.8125 Z M 1.890625 -3.8125 "/></g></g></g><g fill="#000000" fill-opacity="1"><g transform="translate(109.0207, 42.94992)"><g><path d="M 4.34375 0 L 5.375 0 L 5.375 -6.265625 L 4.125 -6.265625 L 4.125 -2.5 L 1.5625 -6.265625 L 0.546875 -6.265625 L 0.546875 0 L 1.796875 0 L 1.796875 -3.765625 Z M 4.34375 0 "/></g></g></g><g fill="#000000" fill-opacity="1"><g transform="translate(118.209775, 42.94992)"><g><path d="M 4.484375 0 L 4.484375 -1.28125 L 2.109375 -1.28125 L 2.109375 -2.546875 L 4.234375 -2.546875 L 4.234375 -3.796875 L 2.109375 -3.796875 L 2.109375 -5 L 4.4375 -5 L 4.4375 -6.265625 L 0.640625 -6.265625 L 0.640625 0 Z M 4.484375 0 "/></g></g></g><g fill="#000000" fill-opacity="1"><g transform="translate(126.25363, 42.94992)"><g><path d="M 5.5 0 L 4.171875 -6.265625 L 2.75 -6.3125 C 2.25 -6.332031 1.898438 -6.222656 1.703125 -5.984375 C 1.566406 -5.804688 1.453125 -5.523438 1.359375 -5.140625 L 0.0625 0 L 1.4375 0 L 1.75 -1.390625 L 3.765625 -1.390625 L 4.046875 0 Z M 2.546875 -4.875 C 2.578125 -4.957031 2.625 -5.003906 2.6875 -5.015625 L 3.0625 -5.015625 L 3.53125 -2.640625 L 2.03125 -2.640625 Z M 2.546875 -4.875 "/></g></g></g><g fill="#000000" fill-opacity="1"><g transform="translate(135.067547, 42.94992)"><g><path d="M 3.078125 -2.515625 C 3.128906 -2.515625 3.171875 -2.484375 3.203125 -2.421875 C 3.203125 -2.410156 3.207031 -2.394531 3.21875 -2.375 L 4.28125 0 L 5.8125 0 L 4.8125 -2.21875 C 4.601562 -2.65625 4.421875 -2.929688 4.265625 -3.046875 C 4.203125 -3.097656 4.132812 -3.132812 4.0625 -3.15625 C 4.257812 -3.25 4.4375 -3.472656 4.59375 -3.828125 C 4.625 -3.898438 4.660156 -3.988281 4.703125 -4.09375 L 5.59375 -6.265625 L 4.140625 -6.265625 L 3.203125 -3.921875 C 3.148438 -3.835938 3.101562 -3.796875 3.0625 -3.796875 L 2.15625 -3.796875 L 2.15625 -6.265625 L 0.6875 -6.265625 L 0.6875 0 L 2.15625 0 L 2.15625 -2.515625 Z M 3.078125 -2.515625 "/></g></g></g><g fill="#000000" fill-opacity="1"><g transform="translate(144.148022, 42.94992)"><g><path d="M 4.484375 0 L 4.484375 -1.28125 L 2.109375 -1.28125 L 2.109375 -2.546875 L 4.234375 -2.546875 L 4.234375 -3.796875 L 2.109375 -3.796875 L 2.109375 -5 L 4.4375 -5 L 4.4375 -6.265625 L 0.640625 -6.265625 L 0.640625 0 Z M 4.484375 0 "/></g></g></g><g fill="#000000" fill-opacity="1"><g transform="translate(152.191876, 42.94992)"><g><path d="M 2.15625 0 L 2.15625 -2.234375 L 3.125 -2.234375 C 3.195312 -2.234375 3.25 -2.195312 3.28125 -2.125 C 3.28125 -2.113281 3.285156 -2.097656 3.296875 -2.078125 L 3.984375 0 L 5.4375 0 L 4.828125 -1.734375 C 4.691406 -2.078125 4.515625 -2.316406 4.296875 -2.453125 C 4.835938 -2.710938 5.128906 -3.148438 5.171875 -3.765625 C 5.179688 -3.816406 5.1875 -3.867188 5.1875 -3.921875 L 5.1875 -4.6875 C 5.1875 -5.46875 4.859375 -5.972656 4.203125 -6.203125 C 3.953125 -6.285156 3.671875 -6.320312 3.359375 -6.3125 L 0.6875 -6.265625 L 0.6875 0 Z M 3.5625 -5.046875 C 3.644531 -5.035156 3.691406 -4.988281 3.703125 -4.90625 L 3.703125 -3.640625 C 3.691406 -3.554688 3.644531 -3.507812 3.5625 -3.5 L 2.15625 -3.5 L 2.15625 -5.046875 Z M 3.5625 -5.046875 "/></g></g></g><g fill="#000000" fill-opacity="1"><g transform="translate(161.094644, 42.94992)"><g><path d="M 1.890625 -3.8125 C 1.796875 -3.820312 1.75 -3.867188 1.75 -3.953125 L 1.75 -4.859375 C 1.757812 -4.941406 1.804688 -4.988281 1.890625 -5 L 4.359375 -5 L 4.359375 -6.265625 L 2.09375 -6.3125 C 1.21875 -6.332031 0.648438 -6.03125 0.390625 -5.40625 C 0.304688 -5.1875 0.265625 -4.945312 0.265625 -4.6875 L 0.265625 -4.140625 C 0.265625 -3.359375 0.597656 -2.847656 1.265625 -2.609375 C 1.503906 -2.523438 1.78125 -2.484375 2.09375 -2.484375 L 2.96875 -2.484375 C 3.050781 -2.472656 3.097656 -2.425781 3.109375 -2.34375 L 3.109375 -1.40625 C 3.097656 -1.320312 3.050781 -1.28125 2.96875 -1.28125 L 0.421875 -1.28125 L 0.421875 0 L 2.765625 0.046875 C 3.640625 0.0664062 4.207031 -0.234375 4.46875 -0.859375 C 4.550781 -1.078125 4.59375 -1.316406 4.59375 -1.578125 L 4.59375 -2.15625 C 4.59375 -2.9375 4.257812 -3.445312 3.59375 -3.6875 C 3.351562 -3.769531 3.078125 -3.8125 2.765625 -3.8125 Z M 1.890625 -3.8125 "/></g></g></g></svg>